<?xml version="1.0" encoding="utf-8"?>
<!-- Generator: Adobe Illustrator 19.0.0, SVG Export Plug-In . SVG Version: 6.00 Build 0)  -->
<svg version="1.1" id="logo_1_" xmlns="http://www.w3.org/2000/svg" xmlns:xlink="http://www.w3.org/1999/xlink" x="0px" y="0px"
	 viewBox="0 0 1443.6 291.9" style="enable-background:new 0 0 1443.6 291.9;" xml:space="preserve">
<style type="text/css">
	.st0{fill:url(#right_1_);stroke:url(#right_2_);stroke-width:0.25;stroke-miterlimit:10;}
	.st1{fill:url(#left_1_);}
	.st2{fill:#42BEEC;}
	.st3{fill:#696969;}
</style>
<g id="logo">
	<linearGradient id="right_1_" gradientUnits="userSpaceOnUse" x1="1060.2155" y1="96.6371" x2="1185.4681" y2="221.8898">
		<stop  offset="0" style="stop-color:#b8b8b8"/>
		<stop  offset="1" style="stop-color:#414441"/>
	</linearGradient>
	<path id="right" class="st0" d="M1138.1,19.2c-3.1,2.8-7.1,6.6-11.5,11.4c-2.1,2.3-3.7,4.2-4.5,5.2c-13.4,16.2-21.3,33.6-21.3,33.6
		c-1.7,3.8-4.2,9.8-6.5,17.4c-2.4,8.1-3.6,14.5-4,16.9c-1.1,6.5-1.4,11.5-1.6,14.4c-0.5,7.4-0.3,13-0.2,14.9
		c0.1,3.3,0.4,5.9,0.5,6.9c0.2,2.5,0.5,4.7,0.8,6.6c0.1,0.2,0.2,0.4,0.5,0.5c0.3,0.1,0.5-0.1,0.5-0.1c0.4-0.4,1.1-1.1,1.5-2
		c0.1-0.2,0.3-0.6,0.5-1.2c0.2-0.7,0.5-1.9,0.5-4.6c0-0.7,0-1.7-0.1-2.9c0,0,0-0.1,0.2-0.1c0.1,0,0.2,0,0.2,0.1
		c0.5,0.7,1.7,2.7,1.8,5.4c0.1,2.8-1.1,4.8-1.5,5.5c-0.1,0.1-0.1,0.3,0,0.5c0.1,0.1,0.2,0.1,0.3,0.1c1.6-0.1,3.3-0.3,4.9-0.4
		c0.8,1.4,1.5,2.7,2.3,4.1c0,0.2,0.1,0.3,0.3,0.3c0.2,0.1,0.4,0,0.5-0.2c0.4-1,1.3-2.7,3.1-4.2c2.5-2.1,5.2-2.5,6.2-2.6
		c0,0,0.1,0,0.1,0.1c0,0.1,0,0.1,0,0.1c-0.4,0.3-2.9,2-4.5,3.4c-0.6,0.5-1,1.1-1.1,1.2c-0.4,0.5-0.8,0.9-1.1,1.6
		c-0.3,0.5-0.4,0.9-0.5,1.2c-0.1,0.2-0.4,1.5,0.2,1.9c0.2,0.1,0.5,0,0.6,0c1.6-0.6,2.4-0.9,2.8-1c1.4-0.5,2.2-0.8,2.8-1
		c0.3-0.1,1.7-0.7,3.9-1.8c5.3-2.7,9.1-5.2,9.1-5.2c3.5-2.4,5.9-4.4,7.9-6c2.5-2.1,6.5-5.6,10.9-10.7c4.9-5.8,7.8-10.7,10.2-14.8
		c3.9-6.8,6.5-12.9,8.2-17.3c0.5-1.5,2.1-5.9,3.8-12.4c1.8-6.9,3.9-16.9,4.7-29.5c0,0,0.1-0.2,0.3-0.2c0.2,0,0.3,0.1,0.4,0.3
		c0.1,0.4,0.3,1.3,0.3,2c0,0.2,0.1,1.9,0.1,1.4c0,0,0,0,0,0c0.1,0.6,0,1,0,1.1c0,0.7,0.2,4.5,0.1,9.2c0,3-0.1,6.7-0.5,11.4
		c-0.3,3-0.9,8.7-2.6,15.7c-0.8,3.4-1.9,7.5-3.6,12c-2,5.6-5.1,12.5-10.1,19.8c-2.6,3.8-8.1,11.1-16.8,18.1c-1.4,1.1-7,5.6-15.4,10
		c-3.6,1.9-6.7,3.2-9.1,4.2c-0.2,0-0.3,0.2-0.4,0.4c0,0.2,0.2,0.4,0.2,0.4c1.8,0.2,4.5,0.4,7.6,0.3c19.3-0.5,33-10.2,35.7-12.1
		c15-10.8,21.1-26,26-37.8c0.9-2.1,1.5-3.9,1.9-5.1c0.1-0.2,0.4-0.4,0.5-0.3c0.2,0.1,0.3,0.4,0.1,0.7c-0.2,1.5-0.5,3.7-1,6.3
		c-0.9,4.9-2.6,12.9-7.3,21.8c-5.3,10-12.1,16.1-14.7,18.4c-9.1,7.8-18,11-22.2,12.4c-2.4,0.8-6.8,2.3-12.5,3.2
		c-3.3,0.5-8.1,0.9-14.1,1.4c-0.9,0.1-1.7,0.1-2.2,0.2c0,0-0.1,0-0.1,0.1c0,0.1,0,0.2,0.1,0.2c1.4,0.3,3.4,0.9,5.7,1.9
		c2.6,1.1,15,6.5,19.6,19.2c2.5,6.9,1.7,12.9,1.1,16.8c-1.2,8.7-4.9,15.1-7.2,18.4c3.7-11.2,3.3-19.3,2.7-23.4
		c-0.3-2.4-0.8-4.1-1-4.8c-0.6-2.1-2.5-7.8-7.7-12.5c-2.7-2.4-5.2-3.6-7.2-4.6c-4.2-2-8-2.8-10.6-3.2c-0.1,0-0.3,0.1-0.3,0.2
		c-0.1,0.1,0,0.3,0,0.4c2.3,2.4,5.1,5.7,7.7,10.2c2.5,4.2,3.9,7.7,4.4,9c1.4,3.7,4.4,12.1,3.1,22.9c-0.2,1.3-0.8,6.6-3.6,12.9
		c-3.6,8.3-8.5,13.6-11.9,17.1c-3.6,3.8-7.1,6.7-9.2,8.4c-2.8,2.3-5.3,4.1-7.2,5.4c-2.5,1.7-4.4,2.9-5.3,3.4
		c-0.2,0.1-0.3,0.2-0.3,0.2c-1.7,1-3.1,1.7-4,2.2c-0.3,0.1-0.4,0.3-0.3,0.4c0,0.1,0.2,0.2,0.3,0.2c0.2-0.1,0.4-0.1,0.7-0.3
		c2.5-1,4.4-2,7.6-3.6c2-1,4.1-2.2,6.3-3.5c2-1.2,3.8-2.4,5.4-3.6c7.6,0.1,18.5-0.5,31-3.9c9-2.4,30.6-9.4,50.3-28.4
		c4.4-4.2,13.4-13.7,21.2-28c5.3-9.8,8-18.1,9.1-22c1.1-3.7,3.2-11.5,4.1-21.7c1.9-20-1.9-35.3-2.9-39.1c-2.6-9.6-6.3-17.9-7.6-20.6
		c-0.6-1.4-1.8-3.8-3.3-6.7c-1.2-2.3-5.9-10.8-14-20.1c-13-14.9-27.3-23.1-33.3-26.2c-8.7-4.6-16.6-7.2-17.7-7.5
		c-2.7-0.9-5-1.5-6.6-1.9c-0.1,0-0.4-0.1-0.5-0.4c-0.1-0.2,0-0.3,0-0.5c1.2-1.9,2.5-3.7,3.8-5.7
		C1134.4,24.1,1136.3,21.6,1138.1,19.2z"/>
	<linearGradient id="left_1_" gradientUnits="userSpaceOnUse" x1="1053.0288" y1="29.7035" x2="1053.0288" y2="259.0352">
		<stop  offset="0" style="stop-color:#79e1f5"/>
		<stop  offset="1" style="stop-color:#0047ce"/>
	</linearGradient>
	<path id="left" class="st1" d="M1120.6,31.9c0.1,0,0.2-0.2,0.2-0.3c0-0.1-0.2-0.3-0.3-0.3c-11.5-1.9-39.8-5-70.1,9.5
		c-20.2,9.6-32.7,22.9-38.5,29.8c-19.2,22.9-24.1,47.1-25.6,57.3c-0.8,5.3-5.3,39.9,13.8,73.5c7.4,13,16,21.9,19.3,25.1
		c6,5.9,14.6,13.1,26,19.2c4.1,2.2,11.5,5.9,21.4,8.8c9,2.7,17,3.9,23.4,4.5c0.1,0,0.2,0,0.4,0c0.1,0,0.1-0.1,0.2-0.1
		c3-3.2,5.4-6.2,7.1-8.4c2.7-3.6,5.8-7.6,8.6-13.3c1.9-3.8,2.8-6.6,3-7.3c0.6-1.8,1.6-4.9,2-9.1c0.6-6-0.4-10.6-0.6-11.8
		c-0.2-1-0.9-4-2.6-7.6c-1.6-3.5-3.4-5.9-4.6-7.5c-1.4-1.8-3.3-4.2-5.9-6.6c0,0-0.1-0.1-0.3-0.1c-0.2,0-0.3,0.2-0.3,0.2
		c-0.6,1.3-1.4,3-2.5,4.9c-0.4,0.7-2.1,3.8-5,7.9c-3,4.2-5.4,7-6.2,7.8c-2,2.1-3.2,3.2-4.4,4.1c-1.6,1.2-3.1,2-4.1,2.5
		c-1,0.5-1.6,0.8-2.3,1.1c-0.6,0.2-2.2,0.6-4.1,0.3c-0.8-0.1-2.3-0.3-4-1.4c-2.4-1.6-3.3-4-3.7-5.1c-0.4-1.1-0.5-2-0.6-2.6
		c-0.6-5.1,0.2-9.9,0.2-10.3c0.7-4.6,1.7-8.4,2.6-11.4c1-3.3,2.4-7.7,4.4-12.8c0,0,0-0.1,0-0.2c0,0-0.1-0.1-0.1-0.1
		c-3.2-0.5-5.9-0.7-8-0.8c-3-0.1-5.4-0.2-8.5,0.1c-3.9,0.5-6.8,1.5-7.4,1.7c-4.6,1.6-7.7,3.8-8.8,4.6c-2.6,1.9-4.3,3.8-5.1,4.8
		c-1.9,2.2-2.9,4.1-3.8,5.6c-0.5,1-2.1,3.9-3.5,8.2c-1.7,5.1-2.2,9.1-2.7,12.8c-0.3,2.6-0.6,6.1-0.7,10.3c0,1.9,0.1,3.8,0.1,5.7
		c-0.3-0.3-0.5-0.5-0.8-0.8c-0.9-4.7-1.4-8.6-1.8-11.6c-0.4-3.3-0.6-5.3-0.6-8.3c0-4.8,0.5-8.6,0.8-10.7c0.4-2.2,0.8-4.4,1.8-7.4
		c1.5-4.4,3.4-7.5,4.1-8.5c1.2-1.8,3.5-4.9,7.1-8c4-3.3,7.7-4.9,9.9-5.8c4.5-1.9,8.2-2.6,11.4-3.2c3.1-0.5,7-1,11.7-1
		c0,0,3.9,0.3,7.2,0.6c0.2,0,0.5,0,0.6-0.1c0.1-0.2-0.2-0.5-0.3-0.6c-0.8-0.8-6.5-4.7-9-6.3c-3-1.4-4.5-2.1-6.8-2.6
		c-3.8-0.9-6.9-0.7-8.2-0.6c-3.7,0.3-6.4,1.4-8.2,2.1c-4.6,1.8-7.7,4.3-9.5,5.8c-3.8,3.1-6.4,6.2-8.2,8.4c-0.8,1-1.5,1.9-2,2.6
		c-0.2,0.1-0.4,0-0.5-0.1c-0.1-0.1-0.1-0.3-0.1-0.3c0.7-1.5,1.6-3.4,2.9-5.6c1.1-1.8,2.8-4.7,5.6-8.1c1.2-1.4,3.1-3.7,6.1-6.1
		c1-0.8,2.1-1.7,3.7-2.6c0.2-0.1,3.5-2,7.5-3c7.3-1.8,14.3,0.2,17,1c6.4,1.9,11,5.1,13.9,7.6c0.1,0.1,0.2,0,0.3,0
		c0.1-0.1,0.1-0.2,0.1-0.3c-4.3-7.3-10.5-19.9-12.5-36.8c-0.6-4.5-1.4-13.7,0.2-24.5c3.8-26.6,19.2-45.1,26.9-53.2
		c0.3-0.1,0.6-0.1,0.7,0.1c0.1,0.2,0.1,0.4,0.1,0.4c-3.8,5-8.5,12.3-12.5,21.7c-7.5,18-7.9,33.9-7.7,42.1
		c0.7,19.4,6.8,34.1,10.8,41.9c0.1,0,0.2,0,0.2,0c0.1,0,0.1-0.1,0.1-0.1c-0.7-3.5-1.5-8.4-1.9-14.4c-0.4-6.6-0.9-22.7,5.2-41.9
		c1.3-4.1,6.2-18.8,18-35C1108.8,43.1,1115.4,36.5,1120.6,31.9z"/>
</g>
<g id="nw">
	<path class="st2" d="M1329.5,131.5c-4.2,9.8-8.2,18.9-12.1,28.1c-9.7,22.5-19.4,45-29,67.6c-1.3,3.1-3.3,3.1-5.8,3
		c-2.6-0.1-5,0.6-6.5-3c-21.1-49-42.3-97.9-63.5-146.8c-0.3-0.8-0.6-1.6-1.2-2.9c5.4,0,10.4,0,15.3,0c4.6,0,9.1,0.2,13.7-0.1
		c2.7-0.2,3.8,0.9,4.8,3.3c14.8,34.4,29.7,68.7,44.7,103.1c0.5,1.1,1,2.1,1.8,3.8c15.9-36.9,31.5-73.2,47.4-110.2
		c16,37,31.7,73.3,47.6,110.2c0.7-1.7,1.3-2.7,1.7-3.9c13.1-34.1,26.3-68.3,39.2-102.5c1.1-2.9,2.5-4,5.6-3.8
		c3.3,0.3,6.6,0.1,10.4,0.1c-3,7.5-5.8,14.4-8.5,21.3c-17.2,42.6-34.4,85.2-51.5,127.8c-1.1,2.8-2.4,4-5.3,3.6
		c-1.1-0.2-2.2-0.2-3.3,0c-2.6,0.4-3.6-0.8-4.6-3.1c-12.9-30.4-25.9-60.7-38.9-91.1C1331,134.7,1330.4,133.5,1329.5,131.5z"/>
	<path class="st2" d="M871.4,104.2c6-5.3,11-10.4,16.6-14.7c13-10.1,27.7-16.1,44.5-15.2
		c11.8,0.6,20.3,7.1,26.9,16.3c5.8,8.1,8.8,17.4,8.9,27.4c0.2,36.3,0.1,72.5,0.1,108.8c0,0.4-0.1,0.7-0.2,1.3c-9.8,0-19.6,0-30,0
		c0-1.3,0-2.7,0-4.1c0-32.2,0-64.4,0-96.6c0-3.7-0.2-7.4-0.7-11.1c-2.4-16.5-14.8-24.7-31-20.7c-13.1,3.2-23.8,10.5-33.4,19.6
		c-1,1-1.3,3.1-1.3,4.7c-0.1,34.5-0.1,69.1-0.1,103.6c0,1.5,0,2.9,0,4.6c-9.9,0-19.6,0-29.6,0c0-50.1,0-100.2,0-150.6
		c9.6,0,19.3,0,29.4,0C871.4,86.2,871.4,94.9,871.4,104.2z"/>
</g>
<g id="Spider">
	<path class="st3" d="M706.6,77.5c9.8,0,19.4,0,29.4,0c0,9.1,0,18.1,0,28c3.4-4.2,6-7.6,8.9-10.9
		c6.2-7.3,13.2-13.7,22.1-17.6c9.1-4.1,18.2-4,26.9,1.3c5.7,3.5,9.2,8.5,8.8,15.6c-0.4,6.5-3.9,10.8-10.3,12.4
		c-5.8,1.4-11.5,1.3-17.1-1c-0.9-0.4-1.8-0.7-2.7-1.2c-12.8-7-18.8-3.6-27.1,6.2c-6.7,7.8-9.9,16-9.6,26.7c0.7,29,0.3,58,0.3,86.9
		c0,1.3,0,2.7,0,4.3c-9.9,0-19.5,0-29.5,0C706.6,178.1,706.6,128,706.6,77.5z"/>
	<path class="st3" d="M683.1,137.9c-37.6,0-74.8,0-112.9,0c0.5,5.8,0.8,11.3,1.6,16.7c1.9,12.5,6.1,24.1,13.8,34.2
		c13.2,17.3,32.6,23.7,53.6,17.8c18.4-5.3,30.7-15.9,39.7-34.8c2.6,1.2,5.3,2.3,8.2,3.6c-3,11-8.3,20.5-15.7,28.7
		c-16.8,18.7-37.1,29.1-63,27.3c-33.4-2.3-63.7-31.6-66.3-65c-1.9-24.9,3.1-47.9,19.3-67.6C593.5,60,658,68,678,113.3
		C681.4,121,683.2,129,683.1,137.9z M645.3,125.6c0.8-13.6-7.3-28.2-19.6-35c-12.1-6.7-24.5-7.8-36.3,0.4
		c-11.8,8.2-17.3,20.2-18.8,34.6C595.9,125.6,620.5,125.6,645.3,125.6z"/>
	<path class="st3" d="M520.7-0.3c0.1,1.5,0.3,2.9,0.3,4.4c0,74.4,0,148.8,0,223.1c0,1.3,0,2.7,0,4.3
		c-10,0-19.7,0-29.8,0c0-5.7,0-11.2,0-17.5c-1.5,1-2.5,1.7-3.5,2.3c-15.3,10.1-31.8,16.3-50.4,15.1c-16.5-1-29.8-8.8-40-21.3
		C353.5,157,386.7,87.6,441.9,75.6c17.3-3.7,33.4-1.3,47.2,10.7c0.4,0.4,0.9,0.7,1.8,1.4c0.1-1.7,0.2-3,0.2-4.3
		c0-23.7,0.1-47.4-0.1-71c0-3.2,1.1-4.5,3.9-5.5c5.7-2.2,11.3-4.7,16.9-7.1C514.8-0.3,517.7-0.3,520.7-0.3z M491.1,159.9
		c0-11.3,0.1-22.7,0-34c0-3.1-0.2-6.2-0.8-9.2c-3.9-20.5-24.9-34.9-44.5-30.3c-10.8,2.5-18.5,9.4-24.3,18.6
		c-6.5,10.3-9.8,21.7-10.6,33.8c-1.4,21,2.4,40.8,14.9,58.2c5.5,7.7,12.5,13.8,21.6,16.6c15.9,4.9,29.2-0.9,41.2-11
		c1.9-1.6,2.7-3.5,2.7-6C491,184.3,491.1,172.1,491.1,159.9z"/>
	<path class="st3" d="M326.5,228.2c0-1.5,0-2.8,0-4.2c0-45.8,0-91.5-0.1-137.3c0-3.1,0.9-4.6,3.8-5.6
		c4.3-1.5,8.4-3.7,12.7-5c4.1-1.3,8.5-1.7,13.1-2.7c0,52.2,0,103.4,0,154.8C346.5,228.2,336.8,228.2,326.5,228.2z"/>
	<path id="XMLID_91_" class="st3" d="M345,0.4c3.4,0.7,13.9,5.9,13.4,15.3c-0.4,6.9-6.9,13.3-14.7,14.2c-2.3,0.3-4.7,0.1-6.9-0.4
		c-7.6-1.8-13-8-13-14.6c0-6.8,5.6-12.8,13.4-14.6c0,0,0,0,0,0C337.2,0.4,341.1-0.5,345,0.4z"/>
	<path class="st3" d="M191.3,220.9c0,24,0,47.4,0,71c-9.9,0-19.6,0-29.6,0c0-71.4,0-142.8,0-214.4
		c9.8,0,19.5,0,29.5,0c0,9.8,0,19.5,0,29.2c0.5,0.4,1.9-0.9,2.5-1.5c5.7-5.9,11.1-12.3,17.3-17.6c28.1-23.6,67.4-15.4,85,17.4
		c17,31.9,10.8,80.9-13.8,106.2c-14.3,14.6-31.9,20.8-52.1,20.6c-13.2-0.2-25.7-2.9-37-10C192.8,221.5,192.4,221.4,191.3,220.9z
		 M191.3,155.2c0,10.7-0.4,21.5,0.2,32.2c0.3,4.9,1.5,10.2,3.7,14.4c9.6,17.9,37.9,24.4,54.7,12.9c8.7-5.9,13.9-14.5,17.5-24.1
		c5.6-14.8,5.8-30.2,4.2-45.6c-1.3-12.3-4.1-24.3-11.1-34.9c-7.6-11.5-18.4-16.8-32.2-15c-15.8,2-27,11.2-36.2,23.3
		c-0.7,0.9-0.7,2.5-0.7,3.8C191.3,133.2,191.3,144.2,191.3,155.2z"/>
	<path class="st3" d="M134.8,73.3c-5.8,2.7-11.1,5.2-16.9,7.8c-0.6-1.5-1.1-2.8-1.6-4.1
		C109.7,59.7,98.8,46.7,80,42.3c-12-2.8-24-2.6-35.3,3.3c-12,6.3-18,19-14.8,30.9c1.7,6.5,5.8,11.6,11,15.4c8,5.9,16.4,11.4,25,16.4
		c12.5,7.3,25.4,13.6,37.8,21c7.2,4.3,14,9.3,20.2,14.9c20.8,18.9,21.2,49.3,1.4,69.4c-10.4,10.5-23.4,15.8-37.7,18.1
		c-16.9,2.6-33.7,2.3-49.9-3.9C18.4,220.5,7.1,206.1,0,187.1c5.9-2.4,11.7-4.8,17.4-7.2c1.8,4,3.2,7.8,5.1,11.4
		c12.7,24.3,41.7,35.5,67.3,26.1c14-5.2,22-15.9,21.4-29.1c-0.3-6.6-2.8-12.4-6.9-17.6c-6.5-8.2-14.9-14-23.9-18.9
		c-13.9-7.7-28.1-14.9-42-22.6c-8.6-4.7-16.2-10.8-22.9-18C-5.1,89.1,1.9,52.7,27.1,37.9c14.9-8.7,31-10.8,47.8-9.7
		c5.9,0.4,11.8,1.2,17.5,2.7C114.6,36.6,127.5,51.9,134.8,73.3z"/>
</g>
</svg>
